<svg id="visual" viewBox="0 0 900 410" width="900" height="410" xmlns="http://www.w3.org/2000/svg" xmlns:xlink="http://www.w3.org/1999/xlink" version="1.1"><path d="M0 302L21.5 314.2C43 326.3 86 350.7 128.8 357C171.7 363.3 214.3 351.7 257.2 350.7C300 349.7 343 359.3 385.8 362.7C428.7 366 471.3 363 514.2 359C557 355 600 350 642.8 343C685.7 336 728.3 327 771.2 328.8C814 330.7 857 343.3 878.5 349.7L900 356L900 411L878.5 411C857 411 814 411 771.2 411C728.3 411 685.7 411 642.8 411C600 411 557 411 514.2 411C471.3 411 428.7 411 385.8 411C343 411 300 411 257.2 411C214.3 411 171.7 411 128.8 411C86 411 43 411 21.5 411L0 411Z" fill="#d0d0d0"></path><path d="M0 381L21.5 374.5C43 368 86 355 128.8 350.3C171.7 345.7 214.3 349.3 257.2 346.2C300 343 343 333 385.8 335.2C428.7 337.3 471.3 351.7 514.2 358.7C557 365.7 600 365.3 642.8 363.8C685.7 362.3 728.3 359.7 771.2 355C814 350.3 857 343.7 878.5 340.3L900 337L900 411L878.5 411C857 411 814 411 771.2 411C728.3 411 685.7 411 642.8 411C600 411 557 411 514.2 411C471.3 411 428.7 411 385.8 411C343 411 300 411 257.2 411C214.3 411 171.7 411 128.8 411C86 411 43 411 21.5 411L0 411Z" fill="#dbdbdb"></path><path d="M0 351L21.5 349.2C43 347.3 86 343.7 128.8 349.5C171.7 355.3 214.3 370.7 257.2 374.8C300 379 343 372 385.8 369C428.7 366 471.3 367 514.2 370C557 373 600 378 642.8 378.3C685.7 378.7 728.3 374.3 771.2 366.2C814 358 857 346 878.5 340L900 334L900 411L878.5 411C857 411 814 411 771.2 411C728.3 411 685.7 411 642.8 411C600 411 557 411 514.2 411C471.3 411 428.7 411 385.8 411C343 411 300 411 257.2 411C214.3 411 171.7 411 128.8 411C86 411 43 411 21.5 411L0 411Z" fill="#e7e7e7"></path><path d="M0 364L21.5 367.8C43 371.7 86 379.3 128.8 380C171.7 380.7 214.3 374.3 257.2 369.8C300 365.3 343 362.7 385.8 366.8C428.7 371 471.3 382 514.2 382.7C557 383.3 600 373.7 642.8 369.7C685.7 365.7 728.3 367.3 771.2 369.2C814 371 857 373 878.5 374L900 375L900 411L878.5 411C857 411 814 411 771.2 411C728.3 411 685.7 411 642.8 411C600 411 557 411 514.2 411C471.3 411 428.7 411 385.8 411C343 411 300 411 257.2 411C214.3 411 171.7 411 128.8 411C86 411 43 411 21.5 411L0 411Z" fill="#f3f3f3"></path><path d="M0 399L21.5 397.5C43 396 86 393 128.8 389.3C171.7 385.7 214.3 381.3 257.2 379.7C300 378 343 379 385.8 383.3C428.7 387.7 471.3 395.3 514.2 397.3C557 399.3 600 395.7 642.8 395.7C685.7 395.7 728.3 399.3 771.2 400.3C814 401.3 857 399.7 878.5 398.8L900 398L900 411L878.5 411C857 411 814 411 771.2 411C728.3 411 685.7 411 642.8 411C600 411 557 411 514.2 411C471.3 411 428.7 411 385.8 411C343 411 300 411 257.2 411C214.3 411 171.7 411 128.8 411C86 411 43 411 21.5 411L0 411Z" fill="#ffffff"></path></svg>