<svg id="visual" viewBox="0 0 900 410" width="900" height="410" xmlns="http://www.w3.org/2000/svg" xmlns:xlink="http://www.w3.org/1999/xlink" version="1.1"><path d="M0 385L21.5 386.2C43 387.3 86 389.7 128.8 386C171.7 382.3 214.3 372.7 257.2 374.8C300 377 343 391 385.8 388.5C428.7 386 471.3 367 514.2 357.3C557 347.7 600 347.3 642.8 353.7C685.7 360 728.3 373 771.2 373.2C814 373.3 857 360.7 878.5 354.3L900 348L900 411L878.5 411C857 411 814 411 771.2 411C728.3 411 685.7 411 642.8 411C600 411 557 411 514.2 411C471.3 411 428.7 411 385.8 411C343 411 300 411 257.2 411C214.3 411 171.7 411 128.8 411C86 411 43 411 21.5 411L0 411Z" fill="#ffffff" stroke-linecap="round" stroke-linejoin="miter"></path></svg>